<svg width="37" height="31" viewBox="0 0 37 31" fill="none" xmlns="http://www.w3.org/2000/svg">
<path d="M33.8082 0.187805H2.62987C1.17747 0.187805 0 1.33934 0 2.75975V7.45722H36.438V2.75975C36.438 1.33934 35.2606 0.187805 33.8082 0.187805ZM4.5608 4.93121C3.93018 4.93121 3.41891 4.4312 3.41891 3.81448C3.41891 3.19775 3.93011 2.69774 4.5608 2.69774C5.19142 2.69774 5.70269 3.19775 5.70269 3.81448C5.70269 4.4312 5.19142 4.93121 4.5608 4.93121ZM9.2038 4.93121C8.57318 4.93121 8.06191 4.4312 8.06191 3.81448C8.06191 3.19775 8.57311 2.69774 9.2038 2.69774C9.83442 2.69774 10.3457 3.19775 10.3457 3.81448C10.3457 4.4312 9.83442 4.93121 9.2038 4.93121ZM14.0572 4.93121C13.4266 4.93121 12.9154 4.4312 12.9154 3.81448C12.9154 3.19775 13.4266 2.69774 14.0572 2.69774C14.6879 2.69774 15.1991 3.19775 15.1991 3.81448C15.1991 4.4312 14.6879 4.93121 14.0572 4.93121Z" fill="#7BDAFF"/>
<path d="M0 9.67609V27.6159C0 29.0364 1.17747 30.1879 2.62987 30.1879H33.8082C35.2606 30.1879 36.438 29.0364 36.438 27.6159V9.67609H0ZM12.0092 17.9586L10.5243 22.1832C10.3692 22.6246 9.94822 22.9238 9.47111 22.9318C9.46456 22.9319 9.45794 22.932 9.4514 22.932C8.98211 22.932 8.56037 22.649 8.39213 22.2191L7.8556 20.848L7.38631 22.1832C7.23117 22.6246 6.81021 22.9238 6.3331 22.9318C6.32655 22.9319 6.31993 22.932 6.31339 22.932C5.8441 22.932 5.42229 22.649 5.25412 22.2191L3.60089 17.9945C3.37699 17.4223 3.66978 16.7809 4.25485 16.5619C4.83985 16.3426 5.49581 16.6292 5.7197 17.2015L6.25624 18.5726L6.72552 17.2374C6.95753 16.433 8.37078 16.0903 8.85771 17.2015L9.39425 18.5726L9.86353 17.2374C10.0672 16.6581 10.7126 16.35 11.305 16.5489C11.8977 16.748 12.2129 17.3793 12.0092 17.9586ZM22.4298 17.9586L20.945 22.1832C20.7898 22.6246 20.3689 22.9238 19.8917 22.9318C19.8852 22.9319 19.8786 22.932 19.872 22.932C19.4027 22.932 18.9809 22.649 18.8128 22.2191L18.2762 20.848L17.8069 22.1832C17.6518 22.6246 17.2308 22.9238 16.7537 22.9318C16.7472 22.9319 16.7406 22.932 16.734 22.932C16.2647 22.932 15.8429 22.649 15.6748 22.2191L14.0215 17.9945C13.7976 17.4223 14.0904 16.7809 14.6755 16.5619C15.2606 16.3426 15.9164 16.6292 16.1403 17.2015L16.6769 18.5726L17.1462 17.2374C17.4061 16.3779 18.8576 16.1711 19.2783 17.2015L19.8149 18.5726L20.2842 17.2374C20.4878 16.6581 21.1331 16.35 21.7257 16.5489C22.3183 16.748 22.6335 17.3793 22.4298 17.9586ZM32.8505 17.9586L31.3657 22.1832C31.2105 22.6246 30.7896 22.9238 30.3125 22.9318C30.3059 22.9319 30.2993 22.932 30.2927 22.932C29.8235 22.932 29.4016 22.649 29.2335 22.2191L28.6969 20.848L28.2277 22.1832C28.0725 22.6246 27.6515 22.9238 27.1744 22.9318C27.1679 22.9319 27.1613 22.932 27.1547 22.932C26.6854 22.932 26.2637 22.649 26.0955 22.2191L24.4422 17.9945C24.2183 17.4223 24.511 16.7809 25.0961 16.5619C25.6813 16.3426 26.3371 16.6292 26.561 17.2015L27.0976 18.5727L27.5669 17.2374C27.8242 16.4109 29.2254 16.1051 29.6991 17.2015L30.2357 18.5726L30.7049 17.2374C30.9086 16.6581 31.554 16.35 32.1465 16.5489C32.7389 16.748 33.0541 17.3793 32.8505 17.9586Z" fill="#3AC8FF"/>
</svg>
