<svg width="35" height="36" viewBox="0 0 35 36" fill="none" xmlns="http://www.w3.org/2000/svg">
<circle cx="17.5" cy="18.3863" r="17.5" fill="#02409D"/>
<path d="M31.0927 13.3267L31.4034 13.5451H31.6931V12.9988L32.6064 12.9121L33.4739 13.5451H34.8998L35 13.4553C34.8571 12.9844 34.6963 12.5218 34.5162 12.0683L33.5857 12.0835L33.119 11.5814L33.0289 10.7741L32.5505 11.0298L32.2942 12.0166L31.6038 11.2968L31.5758 10.6166L30.9094 10.0544L30.664 9.81471H29.8913L30.1344 10.4896L31.0648 10.9978L31.2263 11.166L31.0244 11.2649L31.0337 11.7997L30.5801 11.9854L30.1934 11.9024L29.9511 11.5669L30.5809 11.5996L30.751 11.3752L29.3569 10.4538L29.2498 10.0612L28.6836 10.5634L28.1097 10.4477L27.2359 11.5608L27.0635 11.9968L26.5044 12.0462L25.6772 12.0516L25.1825 11.8248L25.0365 10.8624L25.2144 10.4036L26.0562 10.2233L26.9742 10.4036L27.0868 9.90601L26.697 9.81547L26.8298 9.04018L27.754 8.89866L28.4001 8.00468L29.0673 7.89512L29.6692 7.98261H29.8913L29.7686 7.14265L29.037 7.43177L28.7791 6.80408L28.3543 6.74625L28.2743 6.31638L28.6207 5.94661L29.4447 5.63011L29.6567 5.25882C26.5075 2.54111 22.3796 0.886292 17.8627 0.886292C13.943 0.886292 10.3169 2.13254 7.36797 4.23778L8.26887 4.23093L8.67039 4.44853L9.42684 4.6083L9.48586 4.8997L10.6889 4.94307L10.5258 4.56494L9.45713 4.53526L9.70876 4.30321L9.621 4.02626H8.65486L9.70876 3.25554H10.7184L11.1929 3.89616L11.9804 3.93953L12.455 3.48835L12.8114 3.66258L12.1575 4.28799C12.1575 4.28799 11.2527 4.30397 11.297 4.30397C11.3413 4.30397 11.3715 4.91416 11.3715 4.91416L12.4689 4.88449L12.5878 4.59461L13.3442 4.55048L13.4335 4.11452L12.9885 4.04072L13.1368 3.64813L13.4778 3.54694L14.6653 3.60476L14.0106 4.1868L14.1162 4.63722L14.7989 4.73917L14.7546 3.92507L15.4077 3.5903L16.5657 3.45944L18.2425 4.1868V4.81221L18.7768 4.94307L18.5089 5.43762H17.7516L17.5272 6.00444L15.7992 5.605L17.1591 4.89514L16.641 4.46374L15.4683 4.60906L15.3658 4.7133L15.3619 4.71178L15.3441 4.73612L15.0062 5.08002L14.4478 5.12491L14.4921 5.39729L14.687 5.47642L14.6792 5.5662L14.2249 5.62935L14.1915 5.88727L13.7574 5.90933L13.6789 5.39653L12.9 5.62859L11.3079 6.54159L11.4865 7.1845L11.9315 7.46905L12.8215 7.58926V8.58063L13.2331 8.51596L13.6121 7.74143L14.5589 7.44774V6.25856L15.0854 5.86901L16.3583 6.16345L16.269 6.9494H16.6107L17.5466 6.49898L17.5916 7.53068L18.2728 7.93772L18.244 8.54944L17.5916 8.76704L17.6359 8.96942L18.4226 9.32016L18.4063 9.74167L18.1788 9.76069C18.178 9.75384 18.1765 9.74928 18.1765 9.74928L17.1839 9.44951L17.142 9.13756H17.1412L17.4317 8.94203V8.65747L17.1194 8.58063L17.0418 8.84312L16.4943 8.92605L16.4399 8.90855V8.93518L16.2504 8.96333L16.0958 8.65747L15.9172 8.58063H15.5273L15.3503 8.72367V9.04018L15.6834 9.14898L16.0127 9.19463L15.939 9.22658L15.6384 9.55298L15.5064 9.39016L15.2159 9.31484L14.4245 10.0437L14.5278 10.1267L13.3597 10.7604L12.2608 11.8804L12.1855 12.3787L11.0842 13.0878L10.5382 13.6257L10.5988 14.7016L9.84157 14.3561L9.847 13.7269L7.73998 13.7277L6.6488 14.2686L6.17505 15.1246L5.98711 15.8033L6.29388 16.4614L7.15362 16.5641L8.51973 15.6693L8.63933 16.1129L8.22227 16.8844L9.26219 17.0586L9.36626 18.632L10.7914 18.8694L11.697 17.8438L12.7959 18.0629L13.1819 18.5887L14.2358 18.5278L14.2653 18.2227L14.8447 18.4981L15.4978 19.5009L16.6255 19.5161L17.0418 20.2298L17.1008 21.1017L18.3481 21.5666L19.9216 21.5826L20.3821 22.3229L21.0795 22.542L20.9459 23.1545L20.1817 24.1055L19.9588 26.2123L19.2684 26.7464L18.2448 26.7167L17.9039 27.298L18.157 28.3905L17.0426 29.7859L16.6869 30.4265L15.6252 30.9256L14.927 31.0299L14.8983 31.3198L15.3883 31.4575L15.3293 31.7702L14.8905 32.1841L15.1569 32.5135L15.685 32.528L15.6555 32.9266L15.5149 33.32L15.4699 33.6395L16.2512 34.284L16.1471 34.6187L15.0839 34.599L14.0261 33.6951L13.2021 32.2761L13.317 30.9066L12.6934 30.0918L12.9458 28.7108L12.5753 28.6097V25.6135C12.5753 25.6135 11.5362 24.842 11.4764 24.842C11.4166 24.842 10.9265 24.7111 10.9265 24.7111L10.8225 24.1451L9.47188 22.4864L9.60547 21.8907L9.64974 20.9161L10.5848 20.2754L10.4512 19.1844L9.0859 19.084L8.01724 17.891L7.26002 17.6856L6.77074 17.5973L6.82976 17.1613L6.20612 17.0746V17.3219L4.64663 16.9407L4.01911 16.0003L4.27462 15.5446L3.28751 14.1332L3.1182 13.1008H2.71746L2.85026 14.1035L3.53293 15.136L3.45837 15.5438L2.87978 15.4563L2.1676 14.2671V12.8832L1.42513 12.5339V11.538C0.508698 13.6425 0 15.9569 0 18.3863C0 28.036 8.01336 35.8863 17.8635 35.8863C23.4475 35.8863 28.4397 33.3618 31.7179 29.4177H31.1285V28.2543L30.4466 27.355V25.9559L29.9262 25.4476L29.8804 24.8656L30.5421 23.6292L29.2894 21.4616L29.4362 19.9909L28.3085 19.8768L27.893 19.4697H27.135L26.7498 19.8182H25.4132L25.3681 19.9346H24.6249L22.9194 18.0302L22.9334 16.5466L23.2153 16.4454L23.3201 15.8778H22.9194L22.7555 15.2821L24.729 13.8867V12.8976L25.6951 12.3719L26.0865 12.4099H26.881L27.5031 12.0828L29.5076 11.9298V12.9334L31.0927 13.3267ZM26.0819 7.08711L26.245 6.8406L26.8321 6.72419L26.9789 7.42264L27.2911 7.91642L27.4984 8.15L27.8767 8.29456L27.5202 8.70997L26.8298 8.77464H26.311L26.3692 8.1713L26.801 8.0838L26.7645 7.80001L26.3622 7.55274L26.0811 7.36405L26.0819 7.08711ZM25.1181 8.17815L25.4745 7.61817L25.9553 7.50861L26.297 7.65393L26.2659 8.03207L25.5312 8.54107H25.1165V8.17815H25.1181ZM15.4124 10.3306L15.0404 10.361L15.0606 10.1076L15.2268 9.90449L15.4504 10.0764L15.4124 10.3306ZM16.7164 9.88318L16.4624 9.90449L16.4112 10.1449L16.2154 10.2644L15.9017 10.2902C15.8908 10.218 15.8846 10.1632 15.8846 10.1632H15.7627V9.90449H16.2745L16.3801 9.63743L16.5836 9.63363L16.8158 9.6808L16.7164 9.88318Z" fill="#43FF8E"/>
</svg>
