<svg width="33" height="35" viewBox="0 0 33 35" fill="none" xmlns="http://www.w3.org/2000/svg">
<path d="M8.94326 4.52954C8.94326 4.11191 9.20383 3.73857 9.59583 3.59454L16.9675 0.886292H0.996093C0.446847 0.886292 0 1.33314 0 1.88238V30.7972C0 31.3465 0.446847 31.7933 0.996093 31.7933H8.94326V4.52954Z" fill="#FF9D42"/>
<path d="M31.5111 5.52576H10.9359V33.8903C10.9359 34.4395 11.3828 34.8864 11.932 34.8864H31.5111C32.0603 34.8864 32.5072 34.4395 32.5072 33.8903V6.52185C32.5072 5.9726 32.0604 5.52576 31.5111 5.52576ZM14.5398 10.2487H19.4812C20.0313 10.2487 20.4773 10.6947 20.4773 11.2448C20.4773 11.7949 20.0313 12.2409 19.4812 12.2409H14.5398C13.9897 12.2409 13.5438 11.7949 13.5438 11.2448C13.5438 10.6947 13.9897 10.2487 14.5398 10.2487ZM14.5398 14.7294H19.4812C20.0313 14.7294 20.4773 15.1754 20.4773 15.7255C20.4773 16.2756 20.0313 16.7216 19.4812 16.7216H14.5398C13.9897 16.7216 13.5438 16.2756 13.5438 15.7255C13.5438 15.1754 13.9897 14.7294 14.5398 14.7294ZM28.9032 30.1635H14.5398C13.9897 30.1635 13.5438 29.7175 13.5438 29.1674C13.5438 28.6173 13.9897 28.1713 14.5398 28.1713H28.9032C29.4534 28.1713 29.8993 28.6173 29.8993 29.1674C29.8993 29.7175 29.4534 30.1635 28.9032 30.1635ZM28.9032 25.6828H14.5398C13.9897 25.6828 13.5438 25.2368 13.5438 24.6867C13.5438 24.1366 13.9897 23.6906 14.5398 23.6906H28.9032C29.4534 23.6906 29.8993 24.1366 29.8993 24.6867C29.8993 25.2368 29.4534 25.6828 28.9032 25.6828ZM28.9032 21.2022H14.5398C13.9897 21.2022 13.5438 20.7562 13.5438 20.2061C13.5438 19.656 13.9897 19.21 14.5398 19.21H28.9032C29.4534 19.21 29.8993 19.656 29.8993 20.2061C29.8993 20.7562 29.4534 21.2022 28.9032 21.2022ZM29.8993 15.7255C29.8993 16.2756 29.4534 16.7216 28.9032 16.7216H23.9619C23.4118 16.7216 22.9658 16.2756 22.9658 15.7255V11.2448C22.9658 10.6947 23.4118 10.2487 23.9619 10.2487H28.9032C29.4534 10.2487 29.8993 10.6947 29.8993 11.2448V15.7255Z" fill="#FFC123"/>
<path d="M22.7444 0.886292L15.5389 3.53344H22.7444V0.886292Z" fill="#CE9604"/>
<path d="M24.9567 12.2405H27.9058V14.729H24.9567V12.2405Z" fill="#5AEE27"/>
</svg>
