<svg width="41" height="28" viewBox="0 0 41 28" fill="none" xmlns="http://www.w3.org/2000/svg">
<path d="M37.1177 5.3534C31.7338 -3.4921 23.6233 2.66182 23.6233 2.66182C23.0973 3.05936 22.1274 3.38621 21.4684 3.38773L19.2959 3.38925C18.6369 3.39001 17.667 3.06316 17.1418 2.66562C17.1418 2.66562 9.03054 -3.48982 3.64586 5.35568C-1.7373 14.1981 0.432078 23.8281 0.432078 23.8281C0.812137 26.186 2.06481 27.7594 4.42878 27.5618C6.78591 27.3649 11.9023 21.2117 11.9023 21.2117C12.3249 20.7047 13.2104 20.2905 13.8679 20.2905L26.8918 20.2882C27.5501 20.2882 28.4348 20.7025 28.8567 21.2095C28.8567 21.2095 33.9738 27.3626 36.3348 27.5595C38.6957 27.7571 39.9514 26.1822 40.3292 23.8258C40.3284 23.8258 42.5016 14.1974 37.1177 5.3534ZM15.487 12.5532H12.6943V15.2448C12.6943 15.2448 12.1029 15.6963 11.1878 15.6849C10.2741 15.6712 9.86059 15.1924 9.86059 15.1924V12.554H7.22298C7.22298 12.554 6.89384 12.2165 6.80567 11.3279C6.71902 10.4394 7.16977 9.72104 7.16977 9.72104H9.9632V6.92836C9.9632 6.92836 10.5379 6.62051 11.3641 6.64408C12.1911 6.66992 12.7969 6.98081 12.7969 6.98081L12.7855 9.72028H15.4231C15.4231 9.72028 15.8838 10.3117 15.9218 11.0262C15.9598 11.7414 15.487 12.5532 15.487 12.5532ZM28.2965 15.6211C27.0735 15.6211 26.0876 14.6322 26.0876 13.4107C26.0876 12.1869 27.0735 11.2002 28.2965 11.2002C29.5142 11.2002 30.5077 12.1869 30.5077 13.4107C30.5077 14.6329 29.5142 15.6211 28.2965 15.6211ZM28.2965 9.53937C27.0735 9.53937 26.0876 8.55122 26.0876 7.32971C26.0876 6.10592 27.0735 5.11928 28.2965 5.11928C29.5142 5.11928 30.5077 6.10592 30.5077 7.32971C30.5077 8.55198 29.5142 9.53937 28.2965 9.53937ZM33.8013 12.8041C32.5782 12.8041 31.5924 11.8159 31.5924 10.5937C31.5924 9.37062 32.5782 8.38323 33.8013 8.38323C35.019 8.38323 36.0125 9.37062 36.0125 10.5937C36.0125 11.8159 35.019 12.8041 33.8013 12.8041Z" fill="#FF6A6A"/>
</svg>
