<svg width="35" height="36" viewBox="0 0 35 36" fill="none" xmlns="http://www.w3.org/2000/svg">
<path d="M17.5 0.886292C7.85011 0.886292 0 8.7364 0 18.3863C0 28.0362 7.85011 35.8863 17.5 35.8863C27.1499 35.8863 35 28.0362 35 18.3863C35 8.7364 27.1499 0.886292 17.5 0.886292ZM25.1562 19.8445H18.9582V26.0425C18.9582 26.8476 18.3051 27.5008 17.5 27.5008C16.6949 27.5008 16.0418 26.8476 16.0418 26.0425V19.8445H9.84375C9.03866 19.8445 8.38551 19.1914 8.38551 18.3863C8.38551 17.5812 9.03866 16.928 9.84375 16.928H16.0418V10.73C16.0418 9.92495 16.6949 9.2718 17.5 9.2718C18.3051 9.2718 18.9582 9.92495 18.9582 10.73V16.928H25.1562C25.9613 16.928 26.6145 17.5812 26.6145 18.3863C26.6145 19.1914 25.9613 19.8445 25.1562 19.8445Z" fill="#D795FF"/>
</svg>
