<svg width="35" height="36" viewBox="0 0 35 36" fill="none" xmlns="http://www.w3.org/2000/svg">
<path d="M12.069 29.8905V26.8732C12.069 26.6445 12.1981 26.4357 12.4027 26.3332L13.7369 25.6663L12.4027 24.9995C12.1981 24.8969 12.069 24.6882 12.069 24.4594V22.6491C12.069 22.3166 11.798 22.0457 11.4655 22.0457H0.603448C0.270948 22.0457 0 22.3166 0 22.6491V29.8905C0 30.223 0.270948 30.4939 0.603448 30.4939H11.4655C11.798 30.4939 12.069 30.223 12.069 29.8905ZM10.8621 29.287H1.2069V28.0801H10.8621V29.287ZM2.41379 26.8732V25.6663H9.65517V26.8732H2.41379ZM10.8621 24.4594H1.2069V23.2526H10.8621V24.4594Z" fill="#00B7FF"/>
<path d="M10.8621 7.008L5.80819 11.0511C5.69776 11.1398 5.5644 11.1839 5.43103 11.1839C5.29767 11.1839 5.16431 11.1398 5.05388 11.0517L0 7.008V13.5977H10.8621V7.008Z" fill="#00B7FF"/>
<path d="M9.74578 6.35602H1.11768L5.43173 9.80714L9.74578 6.35602Z" fill="#00B7FF"/>
<path d="M23.535 0.321533H11.4661C10.0093 0.321533 8.79037 1.36007 8.50977 2.73533H26.4913C26.2107 1.36007 24.9917 0.321533 23.535 0.321533Z" fill="#EFE500"/>
<path d="M13.2761 29.8905C13.2761 30.8886 12.4638 31.7008 11.4657 31.7008H8.44849V32.3043C8.44849 33.968 9.80202 35.3215 11.4657 35.3215H23.5347C25.1984 35.3215 26.5519 33.968 26.5519 32.3043V29.287H13.2761V29.8905ZM17.5002 30.4939C18.4983 30.4939 19.3106 31.3062 19.3106 32.3043C19.3106 33.3024 18.4983 34.1146 17.5002 34.1146C16.5021 34.1146 15.6899 33.3024 15.6899 32.3043C15.6899 31.3062 16.5021 30.4939 17.5002 30.4939Z" fill="#EFE500"/>
<path d="M17.4999 32.9078C17.8332 32.9078 18.1034 32.6376 18.1034 32.3043C18.1034 31.971 17.8332 31.7009 17.4999 31.7009C17.1667 31.7009 16.8965 31.971 16.8965 32.3043C16.8965 32.6376 17.1667 32.9078 17.4999 32.9078Z" fill="#EFE500"/>
<path d="M30.1724 17.8216C31.1722 17.8216 31.9827 17.011 31.9827 16.0112C31.9827 15.0114 31.1722 14.2009 30.1724 14.2009C29.1726 14.2009 28.3621 15.0114 28.3621 16.0112C28.3621 17.011 29.1726 17.8216 30.1724 17.8216Z" fill="#00B7FF"/>
<path d="M33.1898 10.5801H27.1553C26.1572 10.5801 25.345 11.3924 25.345 12.3905V18.425C25.345 19.4231 26.1572 20.2353 27.1553 20.2353H33.1898C34.1879 20.2353 35.0001 19.4231 35.0001 18.425V12.3905C35.0001 11.3924 34.1879 10.5801 33.1898 10.5801ZM30.1726 19.0284C28.5088 19.0284 27.1553 17.6749 27.1553 16.0112C27.1553 14.3475 28.5088 12.9939 30.1726 12.9939C31.8363 12.9939 33.1898 14.3475 33.1898 16.0112C33.1898 17.6749 31.8363 19.0284 30.1726 19.0284ZM33.7932 12.9939H32.5863V11.787H33.7932V12.9939Z" fill="#00B7FF"/>
<path d="M24.1381 18.425V12.3905C24.1381 10.9338 25.1767 9.71485 26.5519 9.43424V3.94226H8.44849V5.14916H11.4657C11.7988 5.14916 12.0692 5.4195 12.0692 5.75261V14.2009C12.0692 14.534 11.7988 14.8043 11.4657 14.8043H8.44849V20.8388H11.4657C12.4638 20.8388 13.2761 21.6511 13.2761 22.6492V24.0866L15.3562 25.1269C15.5607 25.2289 15.6899 25.4377 15.6899 25.6664C15.6899 25.8951 15.5607 26.1039 15.3562 26.2065L13.2761 27.2462V28.0802H26.5519V21.3813C25.1767 21.1007 24.1381 19.8817 24.1381 18.425Z" fill="#D6D6D5"/>
</svg>
