<svg width="35" height="36" viewBox="0 0 35 36" fill="none" xmlns="http://www.w3.org/2000/svg">
<path d="M7.47061 32.7063C10.3153 34.7032 13.7682 35.8863 17.498 35.8863C27.1494 35.8863 34.9953 28.0377 34.9953 18.389C34.9953 16.5129 34.6933 14.7128 34.1442 13.0152C32.661 8.42738 29.3262 4.67379 25.0269 2.61575C22.7415 1.51959 20.1975 0.885624 17.4974 0.886292C7.85139 0.885624 0 8.74169 0 18.389C0 22.2661 1.28354 25.8398 3.42233 28.7423C4.55122 30.2716 5.91276 31.6108 7.47061 32.7063ZM29.424 8.60257C30.5012 9.90849 31.3687 11.3916 31.9715 13.0037C32.1025 13.3546 31.9057 13.7382 31.5493 13.8536L25.4254 15.8329C25.069 15.9483 24.6903 15.7507 24.5444 15.4052C24.3482 14.9403 24.1066 14.4984 23.8256 14.087C23.6138 13.7762 23.6342 13.3309 23.9023 13.0682L28.4969 8.56324C28.7642 8.30121 29.1858 8.3134 29.424 8.60257ZM21.0833 10.8744L23.8499 5.0716C24.0115 4.73291 24.4174 4.5897 24.7486 4.76481C25.071 4.93516 25.3867 5.11569 25.6961 5.30784C26.0145 5.50607 26.102 5.93837 25.9031 6.25611L22.4747 11.7195C22.2758 12.0372 21.8726 12.1085 21.5557 11.9089C21.5014 11.8743 21.4464 11.8404 21.3907 11.8078C21.0677 11.6156 20.9218 11.2131 21.0833 10.8744ZM17.4974 13.8216C20.0128 13.8216 22.0621 15.8729 22.0628 18.3883C22.0621 20.9059 20.0129 22.951 17.4974 22.9503C14.9819 22.9503 12.9354 20.9059 12.9354 18.3883C12.936 15.8729 14.9826 13.8216 17.4974 13.8216ZM5.61958 27.1261L10.7966 23.3203C11.0986 23.0983 11.5208 23.1655 11.7686 23.4472C12.017 23.7303 12.2858 23.9943 12.5735 24.238C12.86 24.4796 12.936 24.9018 12.7215 25.2086L9.03448 30.4731C8.81995 30.7806 8.39575 30.8553 8.09915 30.6259C7.13058 29.8785 6.25563 29.0186 5.48722 28.0662C5.25233 27.7737 5.31754 27.3488 5.61958 27.1261Z" fill="#82DCFF"/>
<path d="M17.4961 21.182C19.0402 21.182 20.292 19.9303 20.292 18.3861C20.292 16.842 19.0402 15.5903 17.4961 15.5903C15.952 15.5903 14.7002 16.842 14.7002 18.3861C14.7002 19.9303 15.952 21.182 17.4961 21.182Z" fill="#74FFA3"/>
</svg>
