<svg width="208" height="208" viewBox="0 0 208 208" fill="none" xmlns="http://www.w3.org/2000/svg">
<g filter="url(#filter0_d_16_3207)">
<rect x="40" y="20" width="128" height="128" rx="64" fill="#FFC000"/>
<path d="M112.807 96.0339L122.511 104.66C122.951 105.051 123.51 105.286 124.098 105.327C124.686 105.368 125.271 105.212 125.762 104.885L127.75 103.56C128.926 102.775 129.743 101.555 130.021 100.168L130.356 98.4921C130.821 96.1666 130.764 93.7667 130.187 91.4662L124.888 70.3103C124.506 68.788 123.747 67.3864 122.681 66.2351C121.614 65.0839 120.274 64.2202 118.785 63.7239L117.05 63.1454C114.702 62.3627 112.139 62.5449 109.925 63.6518L108.612 64.3081C108.242 64.4932 107.834 64.5896 107.42 64.5896H100.581C100.167 64.5896 99.7582 64.4932 99.388 64.3081L98.0755 63.6518C95.8615 62.5449 93.2985 62.3627 90.9502 63.1454L89.2147 63.7239C87.7259 64.2202 86.3862 65.0839 85.3196 66.2351C84.2529 67.3864 83.4939 68.788 83.1125 70.3103L77.8129 91.4663C77.2366 93.7668 77.179 96.1667 77.6441 98.4922L77.9793 100.168C78.2568 101.555 79.0738 102.775 80.2507 103.56L82.2385 104.885C82.7291 105.212 83.3142 105.368 83.9024 105.327C84.4906 105.286 85.0487 105.051 85.4893 104.66L95.1933 96.0339C95.6815 95.6 96.3119 95.3603 96.965 95.3603H111.035C111.688 95.3603 112.319 95.6 112.807 96.0339Z" stroke="white" stroke-width="3" stroke-linecap="round" stroke-linejoin="round"/>
<path d="M89.3333 80H97.3333" stroke="white" stroke-width="3" stroke-linecap="round" stroke-linejoin="round"/>
<path d="M93.3333 76V84" stroke="white" stroke-width="3" stroke-linecap="round" stroke-linejoin="round"/>
<path d="M113.998 84.7417C113.998 84.8735 113.959 85.0023 113.886 85.1118C113.812 85.2213 113.708 85.3066 113.587 85.357C113.465 85.4073 113.331 85.4205 113.202 85.3947C113.072 85.369 112.954 85.3055 112.86 85.2123C112.767 85.1191 112.704 85.0004 112.678 84.8712C112.652 84.7419 112.665 84.608 112.716 84.4862C112.766 84.3644 112.851 84.2603 112.961 84.1869C113.07 84.1136 113.199 84.0744 113.331 84.0742C113.419 84.0741 113.506 84.0913 113.587 84.1248C113.668 84.1583 113.741 84.2075 113.803 84.2695C113.865 84.3315 113.914 84.4051 113.948 84.4861C113.981 84.5672 113.999 84.654 113.998 84.7417" stroke="white" stroke-width="3" stroke-linecap="round" stroke-linejoin="round"/>
<path d="M113.334 74.0015C113.466 74.0016 113.595 74.0409 113.704 74.1142C113.814 74.1875 113.899 74.2916 113.949 74.4134C114 74.5352 114.013 74.6692 113.987 74.7984C113.961 74.9277 113.898 75.0464 113.805 75.1395C113.712 75.2327 113.593 75.2962 113.464 75.3219C113.334 75.3477 113.2 75.3346 113.079 75.2842C112.957 75.2338 112.853 75.1485 112.779 75.039C112.706 74.9295 112.667 74.8007 112.667 74.669C112.667 74.5813 112.684 74.4944 112.717 74.4134C112.751 74.3323 112.8 74.2587 112.862 74.1967C112.924 74.1347 112.998 74.0856 113.079 74.052C113.16 74.0185 113.247 74.0014 113.334 74.0015" stroke="white" stroke-width="3" stroke-linecap="round" stroke-linejoin="round"/>
<path d="M118.073 79.3345C118.205 79.3346 118.334 79.3739 118.443 79.4472C118.553 79.5205 118.638 79.6246 118.688 79.7464C118.739 79.8682 118.752 80.0022 118.726 80.1314C118.7 80.2607 118.637 80.3794 118.544 80.4726C118.45 80.5657 118.332 80.6292 118.202 80.655C118.073 80.6807 117.939 80.6676 117.817 80.6172C117.696 80.5669 117.592 80.4815 117.518 80.372C117.445 80.2625 117.406 80.1337 117.406 80.002C117.405 79.9143 117.423 79.8274 117.456 79.7464C117.49 79.6654 117.539 79.5917 117.601 79.5297C117.663 79.4677 117.736 79.4186 117.817 79.3851C117.899 79.3515 117.985 79.3344 118.073 79.3345" stroke="white" stroke-width="3" stroke-linecap="round" stroke-linejoin="round"/>
<path d="M108.592 79.332C108.723 79.3322 108.852 79.3714 108.962 79.4447C109.071 79.518 109.156 79.6222 109.207 79.744C109.257 79.8657 109.27 79.9997 109.245 80.129C109.219 80.2582 109.155 80.3769 109.062 80.4701C108.969 80.5633 108.85 80.6268 108.721 80.6525C108.592 80.6783 108.458 80.6651 108.336 80.6148C108.214 80.5644 108.11 80.4791 108.037 80.3696C107.963 80.2601 107.924 80.1313 107.924 79.9995C107.924 79.9118 107.941 79.825 107.975 79.744C108.008 79.6629 108.057 79.5893 108.119 79.5273C108.181 79.4653 108.255 79.4161 108.336 79.3826C108.417 79.3491 108.504 79.3319 108.592 79.332" stroke="white" stroke-width="3" stroke-linecap="round" stroke-linejoin="round"/>
</g>
<defs>
<filter id="filter0_d_16_3207" x="1.52588e-05" y="0" width="208" height="208" filterUnits="userSpaceOnUse" color-interpolation-filters="sRGB">
<feFlood flood-opacity="0" result="BackgroundImageFix"/>
<feColorMatrix in="SourceAlpha" type="matrix" values="0 0 0 0 0 0 0 0 0 0 0 0 0 0 0 0 0 0 127 0" result="hardAlpha"/>
<feOffset dy="20"/>
<feGaussianBlur stdDeviation="20"/>
<feComposite in2="hardAlpha" operator="out"/>
<feColorMatrix type="matrix" values="0 0 0 0 0.6 0 0 0 0 0.403934 0 0 0 0 0.1075 0 0 0 0.3 0"/>
<feBlend mode="normal" in2="BackgroundImageFix" result="effect1_dropShadow_16_3207"/>
<feBlend mode="normal" in="SourceGraphic" in2="effect1_dropShadow_16_3207" result="shape"/>
</filter>
</defs>
</svg>
