<svg width="208" height="208" viewBox="0 0 208 208" fill="none" xmlns="http://www.w3.org/2000/svg">
<g filter="url(#filter0_d_16_3352)">
<rect x="40" y="20" width="128" height="128" rx="64" fill="url(#paint0_linear_16_3352)"/>
<rect x="40" y="20" width="128" height="128" rx="64" fill="url(#paint1_linear_16_3352)"/>
<g clip-path="url(#clip0_16_3352)">
<path d="M120.971 67.0294C130.343 76.402 130.343 91.598 120.971 100.971C111.598 110.343 96.4022 110.343 87.0296 100.971C77.657 91.5979 77.657 76.402 87.0296 67.0294C96.4022 57.6569 111.598 57.6569 120.971 67.0294" stroke="white" stroke-width="3" stroke-linecap="round" stroke-linejoin="round"/>
<path d="M106.667 89.3335L112 94.6668L117.333 89.3335" stroke="white" stroke-width="3" stroke-linecap="round" stroke-linejoin="round"/>
<path d="M112 73.3335V94.6668" stroke="white" stroke-width="3" stroke-linecap="round" stroke-linejoin="round"/>
<path d="M101.333 78.6668L96 73.3335L90.6667 78.6668" stroke="white" stroke-width="3" stroke-linecap="round" stroke-linejoin="round"/>
<path d="M96 94.6668V73.3335" stroke="white" stroke-width="3" stroke-linecap="round" stroke-linejoin="round"/>
</g>
</g>
<defs>
<filter id="filter0_d_16_3352" x="3.05176e-05" y="0" width="208" height="208" filterUnits="userSpaceOnUse" color-interpolation-filters="sRGB">
<feFlood flood-opacity="0" result="BackgroundImageFix"/>
<feColorMatrix in="SourceAlpha" type="matrix" values="0 0 0 0 0 0 0 0 0 0 0 0 0 0 0 0 0 0 127 0" result="hardAlpha"/>
<feOffset dy="20"/>
<feGaussianBlur stdDeviation="20"/>
<feComposite in2="hardAlpha" operator="out"/>
<feColorMatrix type="matrix" values="0 0 0 0 0.0495139 0 0 0 0 0.152288 0 0 0 0 0.516667 0 0 0 0.3 0"/>
<feBlend mode="normal" in2="BackgroundImageFix" result="effect1_dropShadow_16_3352"/>
<feBlend mode="normal" in="SourceGraphic" in2="effect1_dropShadow_16_3352" result="shape"/>
</filter>
<linearGradient id="paint0_linear_16_3352" x1="40" y1="20" x2="168" y2="148" gradientUnits="userSpaceOnUse">
<stop stop-color="#F39121"/>
<stop offset="1" stop-color="#F3C521"/>
</linearGradient>
<linearGradient id="paint1_linear_16_3352" x1="104" y1="20" x2="104" y2="151.879" gradientUnits="userSpaceOnUse">
<stop stop-color="#05119A"/>
<stop offset="1" stop-color="#213896"/>
</linearGradient>
<clipPath id="clip0_16_3352">
<rect width="64" height="64" fill="white" transform="translate(72 52)"/>
</clipPath>
</defs>
</svg>
