<svg width="209" height="208" viewBox="0 0 209 208" fill="none" xmlns="http://www.w3.org/2000/svg">
<g filter="url(#filter0_d_16_3361)">
<rect x="40.3334" y="20" width="128" height="128" rx="64" fill="url(#paint0_linear_16_3361)"/>
<rect x="40.3334" y="20" width="128" height="128" rx="64" fill="url(#paint1_linear_16_3361)"/>
<path d="M99 79.8584H109.667C111.133 79.8584 112.333 81.0584 112.333 82.5251V90.6664C112.333 92.1384 111.139 93.3331 109.667 93.3331H99C97.528 93.3331 96.3334 92.1384 96.3334 90.6664V82.5251C96.3334 81.0531 97.528 79.8584 99 79.8584Z" stroke="white" stroke-width="3" stroke-linecap="round" stroke-linejoin="round"/>
<path d="M99.8427 79.8587V76.4907C99.8427 74.0107 101.853 72 104.333 72C106.813 72 108.824 74.0107 108.824 76.4907V79.8533" stroke="white" stroke-width="3" stroke-linecap="round" stroke-linejoin="round"/>
<path d="M88.2614 65.5118L102.507 60.3225C103.685 59.8932 104.979 59.8932 106.157 60.3225L120.403 65.5118C123.565 66.6638 125.667 69.6665 125.667 73.0292V86.0212C125.667 95.5705 120.792 99.4878 106.987 107.304C105.341 108.234 103.325 108.234 101.68 107.304C87.8747 99.4878 83 95.5705 83 86.0212V73.0292C83 69.6665 85.1014 66.6638 88.2614 65.5118V65.5118Z" stroke="white" stroke-width="3" stroke-linecap="round" stroke-linejoin="round"/>
</g>
<defs>
<filter id="filter0_d_16_3361" x="0.333374" y="0" width="208" height="208" filterUnits="userSpaceOnUse" color-interpolation-filters="sRGB">
<feFlood flood-opacity="0" result="BackgroundImageFix"/>
<feColorMatrix in="SourceAlpha" type="matrix" values="0 0 0 0 0 0 0 0 0 0 0 0 0 0 0 0 0 0 127 0" result="hardAlpha"/>
<feOffset dy="20"/>
<feGaussianBlur stdDeviation="20"/>
<feComposite in2="hardAlpha" operator="out"/>
<feColorMatrix type="matrix" values="0 0 0 0 0.0495139 0 0 0 0 0.152288 0 0 0 0 0.516667 0 0 0 0.3 0"/>
<feBlend mode="normal" in2="BackgroundImageFix" result="effect1_dropShadow_16_3361"/>
<feBlend mode="normal" in="SourceGraphic" in2="effect1_dropShadow_16_3361" result="shape"/>
</filter>
<linearGradient id="paint0_linear_16_3361" x1="40.3334" y1="20" x2="168.333" y2="148" gradientUnits="userSpaceOnUse">
<stop stop-color="#F39121"/>
<stop offset="1" stop-color="#F3C521"/>
</linearGradient>
<linearGradient id="paint1_linear_16_3361" x1="104.333" y1="20" x2="104.333" y2="151.879" gradientUnits="userSpaceOnUse">
<stop stop-color="#05119A"/>
<stop offset="1" stop-color="#213896"/>
</linearGradient>
</defs>
</svg>
