<svg width="20" height="21" viewBox="0 0 20 21" fill="none" xmlns="http://www.w3.org/2000/svg">
<path d="M0 11.1567V9.9061C0.011479 9.84304 0.0250452 9.78051 0.0349589 9.71746C0.109051 9.23651 0.149749 8.74825 0.261409 8.27615C1.52723 2.9236 6.73872 -0.364428 12.1354 0.77622C16.5569 1.71104 19.8619 5.64834 19.9949 10.1557C20.0727 12.7887 19.2597 15.12 17.5227 17.1059C15.9799 18.8703 14.0373 19.9557 11.7237 20.3658C11.3585 20.4304 10.9933 20.4674 10.628 20.5174H9.37576C9.33318 20.5037 9.28956 20.4934 9.24532 20.4867C7.5099 20.3554 5.90962 19.8218 4.46952 18.8463C2.12101 17.2565 0.675176 15.0638 0.156532 12.2749C0.0866145 11.9039 0.0521774 11.5287 0 11.1567ZM11.0246 11.9748C11.0246 11.176 11.0183 10.3766 11.0282 9.57782C11.0314 9.29747 10.904 9.11874 10.663 9.0114C10.4615 8.91845 10.2429 8.86845 10.021 8.86459C9.79905 8.86073 9.57879 8.9031 9.3742 8.98899C9.10861 9.09321 8.97869 9.2933 8.98026 9.59605C8.98791 11.1867 8.98791 12.778 8.98026 14.3697C8.98026 14.6547 9.09922 14.8465 9.33611 14.9658C9.54612 15.0793 9.78193 15.1368 10.0207 15.1326C10.2595 15.1284 10.4931 15.0627 10.699 14.9418C10.9197 14.8204 11.0308 14.6396 11.0267 14.3686C11.0173 13.5724 11.0246 12.7736 11.0246 11.9748ZM10.0139 7.65763C10.0662 7.65656 10.1185 7.65273 10.1704 7.64616C10.5706 7.57738 10.8748 7.37624 11.0173 6.98647C11.1383 6.65559 11.0491 6.35857 10.8086 6.11001C10.3765 5.66241 9.58239 5.677 9.16236 6.13451C9.01394 6.28781 8.92998 6.49208 8.92775 6.70531C8.92552 6.91854 9.00518 7.12452 9.15036 7.28089C9.37107 7.53569 9.657 7.65398 10.0139 7.65763Z" fill="#00B7FF"/>
<path d="M11.0246 11.9749C11.0246 12.7737 11.0173 13.5725 11.0288 14.3718C11.033 14.6407 10.9218 14.8215 10.7011 14.945C10.4953 15.0659 10.2616 15.1316 10.0228 15.1358C9.78408 15.14 9.54827 15.0825 9.33826 14.969C9.10137 14.8497 8.98084 14.6563 8.98241 14.3729C8.99075 12.7815 8.99075 11.1903 8.98241 9.59927C8.98241 9.29652 9.11076 9.09851 9.37635 8.99221C9.58094 8.90632 9.8012 8.86395 10.0231 8.86781C10.245 8.87167 10.4637 8.92167 10.6651 9.01462C10.9036 9.12196 11.0304 9.30069 11.0304 9.58103C11.0184 10.3767 11.0246 11.1761 11.0246 11.9749Z" fill="white"/>
<path d="M10.0139 7.6574C9.657 7.65375 9.37106 7.53546 9.14722 7.28222C9.00204 7.12585 8.92237 6.91987 8.92461 6.70664C8.92684 6.49341 9.0108 6.28913 9.15922 6.13583C9.57925 5.67832 10.3734 5.66373 10.8054 6.11134C11.0465 6.3599 11.1357 6.65691 11.0141 6.9878C10.8717 7.37758 10.5675 7.57871 10.1673 7.6475C10.1164 7.65344 10.0652 7.65674 10.0139 7.6574Z" fill="white"/>
</svg>
