<svg width="76" height="26" viewBox="0 0 76 26" fill="none" xmlns="http://www.w3.org/2000/svg">
<path d="M33.117 24.8216H26.9971L30.822 1.31553H36.9424L33.117 24.8216ZM21.8487 1.31553L16.0144 17.4832L15.324 14.0016L15.3246 14.0029L13.2654 3.43198C13.2654 3.43198 13.0164 1.31553 10.3623 1.31553H0.716954L0.603775 1.71354C0.603775 1.71354 3.55335 2.32722 7.00531 4.40029L12.3222 24.8222H18.6986L28.4351 1.31553H21.8487ZM69.9844 24.8216H75.6038L70.7044 1.3149H65.7849C63.5131 1.3149 62.9598 3.06666 62.9598 3.06666L53.8325 24.8216H60.212L61.4878 21.33H69.2676L69.9844 24.8216ZM63.2503 16.5067L66.4658 7.71014L68.2748 16.5067H63.2503ZM54.311 6.96819L55.1844 1.92041C55.1844 1.92041 52.4895 0.895508 49.6801 0.895508C46.6431 0.895508 39.4311 2.22285 39.4311 8.6772C39.4311 14.7499 47.8957 14.8253 47.8957 18.0151C47.8957 21.2049 40.3032 20.6333 37.7976 18.6219L36.8877 23.8998C36.8877 23.8998 39.6204 25.2271 43.7954 25.2271C47.9717 25.2271 54.272 23.0648 54.272 17.1795C54.272 11.0678 45.7314 10.4988 45.7314 7.84156C45.732 5.18374 51.6922 5.52516 54.311 6.96819Z" fill="#2566AF"/>
<path d="M16.4615 15.0147L14.2433 3.62732C14.2433 3.62732 13.975 1.34741 11.116 1.34741H0.725696L0.603775 1.77616C0.603775 1.77616 5.59776 2.81113 10.3879 6.68888C14.968 10.3953 16.4615 15.0147 16.4615 15.0147Z" fill="#E6A540"/>
</svg>
