<svg width="62" height="50" viewBox="0 0 62 50" fill="none" xmlns="http://www.w3.org/2000/svg">
<g clip-path="url(#clip0_1230_34)">
<path d="M60.7783 48.6382V48.7631H60.8939C60.9156 48.7635 60.937 48.758 60.9559 48.7472C60.9634 48.7418 60.9695 48.7346 60.9736 48.7263C60.9776 48.7179 60.9796 48.7087 60.9792 48.6994C60.9796 48.6903 60.9776 48.6812 60.9736 48.6731C60.9695 48.6649 60.9634 48.658 60.9559 48.6529C60.9372 48.6416 60.9157 48.636 60.8939 48.6369H60.7783V48.6382ZM60.8952 48.5498C60.9447 48.5467 60.9938 48.5611 61.034 48.5904C61.0502 48.6037 61.063 48.6207 61.0714 48.6399C61.0799 48.6591 61.0837 48.68 61.0827 48.701C61.0834 48.719 61.0803 48.737 61.0736 48.7538C61.0669 48.7705 61.0567 48.7856 61.0436 48.7981C61.0126 48.8253 60.9737 48.8416 60.9327 48.8446L61.0877 49.0226H60.9683L60.8257 48.8459H60.7795V49.0226H60.6797V48.5501H60.8967L60.8952 48.5498ZM60.8642 49.1857C60.9165 49.1862 60.9684 49.1755 61.0164 49.1544C61.0626 49.1344 61.1047 49.1057 61.1404 49.0698C61.1761 49.034 61.2046 48.9916 61.2244 48.9449C61.2651 48.8459 61.2651 48.7347 61.2244 48.6357C61.2043 48.5892 61.1758 48.5468 61.1404 48.5108C61.1047 48.4749 61.0626 48.4462 61.0164 48.4261C60.9681 48.4062 60.9163 48.3962 60.8642 48.3968C60.8111 48.3963 60.7584 48.4063 60.7092 48.4261C60.6619 48.4458 60.6188 48.4746 60.5824 48.5108C60.5275 48.5674 60.4904 48.6391 60.4757 48.7169C60.461 48.7946 60.4693 48.875 60.4996 48.948C60.5185 48.9949 60.5466 49.0374 60.5824 49.0729C60.6188 49.1091 60.6619 49.1378 60.7092 49.1576C60.7581 49.1786 60.8109 49.1893 60.8642 49.1888V49.1857ZM60.8642 48.2831C61.0004 48.283 61.1312 48.3368 61.2284 48.433C61.2753 48.4792 61.3126 48.5343 61.3381 48.5951C61.3646 48.6575 61.3783 48.7247 61.3783 48.7926C61.3783 48.8605 61.3646 48.9277 61.3381 48.9902C61.312 49.0506 61.2747 49.1056 61.2284 49.1523C61.1808 49.1982 61.1255 49.2352 61.065 49.2616C61.0015 49.2887 60.9332 49.3026 60.8642 49.3022C60.7943 49.3027 60.7251 49.2888 60.6608 49.2616C60.5996 49.2358 60.5438 49.1987 60.4962 49.1523C60.4499 49.1039 60.4131 49.0471 60.388 48.9849C60.3615 48.9224 60.3478 48.8552 60.3478 48.7873C60.3478 48.7194 60.3615 48.6522 60.388 48.5898C60.4136 48.529 60.4509 48.4739 60.4977 48.4277C60.5447 48.3804 60.6007 48.3432 60.6623 48.3184C60.7267 48.2911 60.7959 48.2773 60.8657 48.2778L60.8642 48.2831ZM13.397 46.4583C13.397 45.5573 13.9829 44.8171 14.9404 44.8171C15.8556 44.8171 16.4731 45.5254 16.4731 46.4583C16.4731 47.3912 15.8556 48.0995 14.9404 48.0995C13.9829 48.0995 13.397 47.3593 13.397 46.4583ZM17.5162 46.4583V43.8943H16.4098V44.5189C16.0589 44.0573 15.5267 43.7678 14.8028 43.7678C13.3768 43.7678 12.2577 44.8946 12.2577 46.4596C12.2577 48.0245 13.3762 49.1513 14.8028 49.1513C15.5263 49.1513 16.0589 48.8615 16.4098 48.4002V49.0226H17.515V46.4583H17.5162ZM54.8997 46.4583C54.8997 45.5573 55.4857 44.8171 56.4436 44.8171C57.3596 44.8171 57.9762 45.5254 57.9762 46.4583C57.9762 47.3912 57.3596 48.0995 56.4436 48.0995C55.486 48.0995 54.8997 47.3593 54.8997 46.4583ZM59.0203 46.4583V41.8362H57.913V44.5189C57.562 44.0573 57.0298 43.7678 56.3059 43.7678C54.8799 43.7678 53.7608 44.8946 53.7608 46.4596C53.7608 48.0245 54.8793 49.1513 56.3059 49.1513C57.0298 49.1513 57.562 48.8615 57.913 48.4002V49.0226H59.0203V46.4583ZM31.248 44.7644C31.961 44.7644 32.4189 45.2147 32.5357 46.0076H29.8958C30.0139 45.2675 30.46 44.7644 31.2483 44.7644H31.248ZM31.2703 43.765C29.7792 43.765 28.7361 44.8581 28.7361 46.4567C28.7361 48.0867 29.8211 49.1485 31.3444 49.1485C32.1107 49.1485 32.8126 48.9558 33.4301 48.4302L32.8879 47.6042C32.4613 47.9477 31.9182 48.1404 31.4076 48.1404C30.6946 48.1404 30.0455 47.8078 29.8859 46.8849H33.6638C33.6747 46.7462 33.6858 46.6063 33.6858 46.4564C33.6747 44.8584 32.6938 43.7647 31.2697 43.7647L31.2703 43.765ZM44.6276 46.4564C44.6276 45.5554 45.2135 44.8153 46.1711 44.8153C47.0862 44.8153 47.7037 45.5236 47.7037 46.4564C47.7037 47.3893 47.0862 48.0976 46.1711 48.0976C45.2135 48.0976 44.6273 47.3574 44.6273 46.4564H44.6276ZM48.7466 46.4564V43.8943H47.6408V44.5189C47.2886 44.0573 46.7576 43.7678 46.0338 43.7678C44.6077 43.7678 43.4887 44.8946 43.4887 46.4596C43.4887 48.0245 44.6071 49.1513 46.0338 49.1513C46.7576 49.1513 47.2886 48.8615 47.6408 48.4002V49.0226H48.7469V46.4583L48.7466 46.4564ZM38.3795 46.4564C38.3795 48.0114 39.454 49.1482 41.0939 49.1482C41.8602 49.1482 42.3708 48.9764 42.9229 48.537L42.3916 47.636C41.9762 47.9368 41.54 48.0976 41.0586 48.0976C40.1754 48.0867 39.5259 47.4433 39.5259 46.4564C39.5259 45.4695 40.1754 44.8265 41.0586 44.8153C41.5388 44.8153 41.9749 44.9761 42.3916 45.2769L42.9229 44.3759C42.3699 43.9364 41.8593 43.7647 41.0939 43.7647C39.454 43.7647 38.3795 44.9011 38.3795 46.4564ZM52.6426 43.7647C52.0044 43.7647 51.5886 44.0654 51.3013 44.5158V43.8943H50.2048V49.0198H51.3124V46.1466C51.3124 45.2984 51.6742 44.8271 52.3974 44.8271C52.6343 44.8237 52.8694 44.8675 53.0894 44.9561L53.4304 43.9055C53.1855 43.8084 52.8662 43.7656 52.642 43.7656L52.6426 43.7647ZM22.9862 44.3018C22.4539 43.9483 21.7205 43.7656 20.9114 43.7656C19.6224 43.7656 18.7925 44.388 18.7925 45.4065C18.7925 46.2422 19.4103 46.7578 20.548 46.9186L21.0707 46.9936C21.6774 47.0795 21.9638 47.2403 21.9638 47.5298C21.9638 47.9261 21.5608 48.1522 20.8041 48.1522C20.0378 48.1522 19.4847 47.9055 19.1118 47.616L18.5919 48.4852C19.1986 48.9355 19.9649 49.1504 20.7948 49.1504C22.2642 49.1504 23.1158 48.4533 23.1158 47.4774C23.1158 46.5764 22.4455 46.1051 21.3382 45.9442L20.8168 45.868C20.3379 45.8056 19.9541 45.7085 19.9541 45.3649C19.9541 44.9902 20.3158 44.7647 20.9228 44.7647C21.5723 44.7647 22.201 45.0114 22.5091 45.2041L22.988 44.3031L22.9862 44.3018ZM37.262 43.7665C36.6237 43.7665 36.208 44.0673 35.9219 44.5176V43.8943H34.8254V49.0198H35.9318V46.1466C35.9318 45.2984 36.2936 44.8271 37.0168 44.8271C37.2536 44.8237 37.4888 44.8675 37.7087 44.9561L38.0497 43.9055C37.8048 43.8084 37.4855 43.7656 37.2614 43.7656L37.262 43.7665ZM27.8206 43.8943H26.0115V42.3393H24.893V43.8943H23.861V44.913H24.893V47.2512C24.893 48.4405 25.3512 49.1488 26.66 49.1488C27.1402 49.1488 27.6932 48.9989 28.0441 48.7525L27.7245 47.7981C27.3944 47.9908 27.0326 48.0879 26.7449 48.0879C26.1919 48.0879 26.0115 47.7444 26.0115 47.23V44.914H27.8206V43.8943ZM11.2793 49.0211V45.8043C11.2793 44.5929 10.513 43.7778 9.27768 43.7669C8.62823 43.7559 7.95832 43.9595 7.48929 44.6788C7.13837 44.1104 6.58533 43.7669 5.80785 43.7669C5.26442 43.7669 4.73339 43.9277 4.31768 44.5279V43.8943H3.21036V49.0198H4.32636V46.1779C4.32636 45.2881 4.81616 44.8153 5.57256 44.8153C6.30726 44.8153 6.67895 45.2978 6.67895 46.1666V49.0192H7.79743V46.1772C7.79743 45.2875 8.308 44.8146 9.04239 44.8146C9.79786 44.8146 10.1584 45.2972 10.1584 46.166V49.0186L11.2793 49.0211Z" fill="#231F20"/>
<path d="M61.4091 31.9712V31.2217H61.2154L60.9913 31.736L60.7684 31.2217H60.574V31.9712H60.7116V31.4066L60.9212 31.8938H61.0638L61.2734 31.4053V31.9712H61.4098H61.4091ZM60.18 31.9712V31.35H60.428V31.2236H59.7944V31.35H60.0424V31.9712H60.1788H60.18Z" fill="#F79410"/>
<path d="M39.3877 35.1858H22.621V4.82983H39.388L39.3877 35.1858Z" fill="#FF5F00"/>
<path d="M23.684 20.0077C23.684 13.85 26.5459 8.36464 31.0025 4.82966C27.6291 2.14992 23.4567 0.695531 19.1608 0.701925C8.57832 0.701925 0 9.34527 0 20.0077C0 30.6701 8.57832 39.3134 19.1608 39.3134C23.4568 39.3199 27.6293 37.8655 31.0028 35.1857C26.5465 31.6513 23.684 26.1657 23.684 20.0077Z" fill="#EB001B"/>
<path d="M62.0078 20.0084C62.0078 30.6708 53.4294 39.3141 42.847 39.3141C38.5505 39.3205 34.3775 37.8661 31.0034 35.1864C35.4612 31.6514 38.3231 26.1664 38.3231 20.0084C38.3231 13.8504 35.4612 8.36537 31.0034 4.83039C34.3774 2.15073 38.5503 0.696375 42.8467 0.702657C53.4291 0.702657 62.0075 9.346 62.0075 20.0084" fill="#F79E1B"/>
</g>
<defs>
<clipPath id="clip0_1230_34">
<rect width="62" height="48.5946" fill="white" transform="translate(0 0.702637)"/>
</clipPath>
</defs>
</svg>
