<svg width="100" height="44" viewBox="0 0 100 44" fill="none" xmlns="http://www.w3.org/2000/svg">
<g clip-path="url(#clip0_1230_48)">
<path d="M40.4377 42.3047C40.2474 41.772 39.9025 41.4087 39.6527 40.9365C39.0462 40.1253 38.3326 39.4231 37.619 38.7208C37.3692 38.6361 37.2622 38.3939 37.0243 38.297C36.8697 38.0912 36.6199 37.9822 36.4177 37.8248C36.0134 37.51 35.5733 37.2437 35.1213 36.9773C34.265 36.4203 33.2065 36.0692 32.1599 35.706C31.03 35.4275 29.8407 35.2217 28.6037 35.0522C27.3787 34.8706 26.1537 34.701 25.226 34.2046C24.6908 34.0472 24.2983 33.7445 23.8345 33.5024C23.4063 33.2118 22.9425 32.9696 22.5857 32.6064C22.1456 32.34 21.8721 31.892 21.5271 31.5288C21.4082 31.2867 21.206 31.1414 21.1109 30.875C20.9919 30.8266 20.9563 30.6813 20.8849 30.5965C20.8016 30.4996 20.8016 30.3059 20.6589 30.2696C20.5876 30.766 20.6113 31.3593 20.6589 31.8678C20.7184 32.0858 20.7422 32.3521 20.8016 32.5701C20.8373 32.7638 21.0157 33.0786 20.9444 33.2239C17.2336 33.0302 14.5219 31.8315 12.167 30.2575C11.0015 29.4705 10.0024 28.514 9.07471 27.4848C8.67034 26.9157 8.23028 26.3709 7.87348 25.7413C7.50478 25.1238 7.19555 24.4215 6.86253 23.7677C6.31544 22.3511 5.80402 20.8982 5.61372 19.1183C5.36396 17.4596 5.42343 15.3407 5.79213 13.803C5.92295 12.9555 6.1965 12.2411 6.43437 11.5026C6.58898 11.1635 6.75549 10.8245 6.89821 10.4734C7.1004 10.1828 7.20744 9.78326 7.45721 9.529C8.13513 8.23347 9.14607 7.26484 10.1808 6.33255C11.2988 5.49711 12.5714 4.81908 14.1056 4.40741C15.5804 4.06839 17.5904 4.00786 19.1841 4.35898C22.4192 5.03702 24.8573 6.51416 26.903 8.40297C28.9724 10.2555 30.5662 12.6044 31.6604 15.4618C32.7902 18.1739 33.1827 22.3995 32.1718 25.4749C31.7555 25.2328 31.3392 25.0027 30.923 24.7727C30.4234 24.6274 29.9358 24.4579 29.353 24.3973C28.6513 24.3852 27.9615 24.3973 27.5095 24.6274C28.4253 24.5305 29.1627 24.7848 29.7336 25.0027C30.0666 25.1359 30.2569 25.2207 30.5186 25.3781C31.03 25.6808 31.482 25.9592 31.8625 26.3709C32.9448 27.3395 33.7179 28.6229 34.0866 30.318C34.0866 30.3665 34.1461 30.3544 34.1342 30.2696C34.1818 30.2575 34.2056 30.2212 34.2293 30.1727C34.2888 30.1001 34.3602 30.0274 34.4196 29.9427C34.5386 29.7974 34.6575 29.6521 34.7408 29.4705C34.9905 29.1678 35.1927 28.8288 35.383 28.4776C35.8231 27.8238 36.1561 27.0731 36.5367 26.3588C37.1908 24.8332 37.726 23.1866 38.059 21.322C38.7251 17.1811 37.9282 13.2582 36.5367 10.3644C35.1095 7.44646 33.1114 5.10966 30.5305 3.35404C27.9258 1.61052 24.8811 0.327095 20.6946 0.206017C20.6708 0.121263 20.6351 0.218125 20.5519 0.206017C18.3397 0.13337 16.5557 0.448172 14.7836 0.908267C13.9629 1.18675 13.1066 1.4289 12.3811 1.80424C11.5485 2.08272 10.8825 2.54282 10.1213 2.88183C9.84779 3.1482 9.43152 3.28139 9.14608 3.53565C8.77738 3.71727 8.50383 4.00786 8.13513 4.18947C7.54046 4.72221 6.91011 5.19442 6.32733 5.73927C5.75644 6.27201 5.25692 6.8774 4.70982 7.43435C4.62657 7.62808 4.48385 7.76126 4.34113 7.90656C4.24598 8.08817 4.12704 8.24557 3.97243 8.37876C3.91296 8.5967 3.72267 8.68145 3.65131 8.89939C3.49669 9.02047 3.46101 9.26263 3.28261 9.3716C3.12799 9.75904 2.85445 10.0375 2.67604 10.4008C2.46196 10.7519 2.29545 11.1393 2.08137 11.4783C1.74836 12.2654 1.39155 13.0281 1.118 13.8757C0.832561 14.699 0.594692 15.5708 0.428184 16.5152C0.249782 17.399 0.0832742 18.5493 0.107061 19.4816C-0.0118733 19.8206 0.0832742 20.4502 0.107061 20.8498C0.107061 20.9224 0.0594873 20.9466 0.0594873 20.995C0.0594873 21.443 0.178422 21.9879 0.202209 22.2664C0.297356 23.2955 0.475758 24.252 0.7612 25.0875C0.939602 26.0198 1.32019 26.7462 1.59374 27.5817C2.01001 28.2839 2.29545 29.1194 2.79498 29.749C3.16368 30.4875 3.68699 31.0687 4.18651 31.6741C4.72172 32.2553 5.25692 32.8486 5.89917 33.3208C7.07662 34.362 8.45626 35.1975 9.96672 35.9118C12.7855 37.3042 16.9957 38.2123 20.7779 37.9822C21.7412 37.8491 22.7165 37.728 23.5966 37.51C24.4054 37.2073 25.3449 37.0257 26.3202 36.9047C28.5443 36.7594 30.471 36.9652 32.1837 37.4737C33.9201 37.9459 35.4187 38.6603 36.7151 39.5926C37.4049 40.0042 37.9758 40.537 38.5586 41.0455C39.1532 41.5661 39.629 42.2079 40.1761 42.789C40.2474 43.007 40.3901 43.1644 40.4972 43.3581C40.6399 43.5155 40.5685 43.8787 40.9135 43.8303C41.1275 43.6124 40.8778 43.2976 40.8659 43.0312C40.6518 42.8011 40.6042 42.4984 40.4377 42.3047Z" fill="#FCB316"/>
<path d="M31.8031 29.4223C31.7555 29.4223 31.7436 29.4586 31.7079 29.4707C31.6247 29.6523 31.6604 29.9429 31.7079 30.1245C31.9577 30.6452 32.0409 31.3232 32.588 31.5411C32.8497 31.4564 32.8259 31.0689 32.814 30.6936C32.6951 30.2335 32.5286 29.8218 32.255 29.5191C32.0647 29.4465 31.9339 29.3254 31.8031 29.4223ZM28.5681 30.742C28.5681 30.7178 28.5324 30.6936 28.5205 30.742C28.0685 30.6815 27.9139 30.9358 27.6879 31.1174C27.2955 32.1707 27.9258 33.1999 29.0319 33.1878C29.472 33.0788 29.7455 32.7882 29.8169 32.2918C29.7574 31.408 29.3887 30.8389 28.5681 30.742Z" fill="#FCB316"/>
<path d="M55.2331 27.3879C55.4115 28.1507 55.7921 28.6955 56.2202 29.2041C56.6484 29.7126 57.1479 30.1363 57.7545 30.4511C58.3254 30.8144 58.9438 31.1171 59.6574 31.3229C60.0023 31.444 60.3354 31.5893 60.7635 31.6377C61.0609 31.8072 61.4177 31.892 61.4414 32.3279C61.4296 32.8485 61.0846 33.0422 60.6446 33.1391C60.2045 33.0422 59.6574 33.0543 59.2887 32.8848C58.361 32.7758 57.6118 32.4731 56.8268 32.1947C55.3282 31.6014 54.0675 30.7417 53.0209 29.6884C52.8068 29.3251 52.5095 29.0345 52.2835 28.6834C52.0575 28.3323 51.9029 27.9085 51.665 27.5574C49.8335 27.3152 48.5846 26.4677 47.4904 25.487C46.4795 24.3125 45.6708 22.908 45.3377 21.0434C44.9453 19.2515 45.0642 17.0115 45.528 15.2801C46.539 11.9263 48.656 9.69845 52.6522 9.39575C53.7583 9.43208 54.7217 9.56526 55.6018 9.90428C56.4938 10.2312 57.3382 10.8366 58.0042 11.4662C58.0637 11.5146 58.0875 11.5267 58.1232 11.5873C58.2659 11.7931 58.6108 12.0837 58.8011 12.3379C58.8368 12.3864 58.8249 12.4711 58.8606 12.5317C58.9319 12.6406 59.039 12.6891 59.1103 12.7859C59.146 12.8465 59.1341 12.9191 59.1698 12.9675C59.2174 13.0402 59.2768 13.1492 59.3482 13.2823C59.372 13.3308 59.4552 13.3671 59.4671 13.4034C59.5742 13.6093 59.6218 13.8635 59.7169 14.0936C59.812 14.3357 59.9429 14.5416 60.0261 14.7837C60.264 15.4981 60.4186 16.3456 60.5138 17.2174C60.7516 19.7358 60.264 21.9878 59.3482 23.6587C58.92 24.5305 58.3254 25.2448 57.6237 25.8502C56.9814 26.5403 56.1013 26.952 55.2331 27.3879ZM52.2835 11.6236C51.7483 11.6599 51.4272 11.9142 50.9871 12.0595C50.7017 12.3258 50.3449 12.5317 50.1308 12.8707C49.774 13.0765 49.6788 13.5366 49.3934 13.803C49.1555 14.4084 48.9296 15.0864 48.7749 15.8734C48.6322 16.6483 48.5371 17.5201 48.5252 18.3797C48.5133 20.5349 48.9652 22.678 49.8097 23.9493C50.3092 24.5668 50.9158 25.0753 51.6531 25.4506C52.0813 25.487 52.4143 25.6323 52.8782 25.6444C53.1398 25.5475 53.568 25.6444 53.7345 25.4506C54.1151 25.4749 54.1983 25.2206 54.5314 25.1964C54.7098 25.0148 54.9001 24.8695 55.1498 24.7605C55.3758 24.5062 55.5899 24.252 55.8277 24.0098C55.9467 23.8282 56.018 23.5739 56.1964 23.4408C57.2669 21.3582 57.3858 17.5443 56.6841 15.1227C56.4224 14.2389 56.0537 13.5245 55.6374 12.9312C55.1855 12.459 54.6503 12.0595 54.0437 11.7447C53.5561 11.6357 53.0923 11.5025 52.45 11.563C52.4143 11.563 52.3786 11.5751 52.3905 11.6236C52.3668 11.6236 52.3311 11.6236 52.2835 11.6236ZM65.2592 9.86795C66.2226 9.90428 67.3525 9.7832 68.2088 9.92849C68.3991 10.2312 68.3277 10.5944 68.3277 10.9334C68.3991 15.5223 68.3277 20.4501 68.3277 25.1358C68.3277 25.5112 68.3396 25.8986 68.3277 26.2619C68.3159 26.5767 68.3991 26.9157 68.2088 27.2063C67.7807 27.3152 67.1622 27.2668 66.6151 27.2668C66.0323 27.2668 65.4614 27.3516 65.0808 27.1457C64.9738 21.6004 64.9738 15.6191 65.0808 10.0617C65.1046 9.96482 65.1641 9.90428 65.2592 9.86795ZM72.6332 9.86795H75.5233C75.7849 10.2312 75.8682 10.776 75.9514 11.3088C76.8197 14.6747 77.676 18.0528 78.4729 21.5035C78.6631 21.5277 78.6037 21.2977 78.6632 21.1887C78.7464 21.104 78.6988 20.8981 78.7821 20.8134C78.8178 20.5349 78.9843 20.3896 78.9724 20.0627C79.1865 19.6389 79.2578 19.0577 79.46 18.6219C79.7098 17.6048 80.0428 16.6604 80.3282 15.6797C80.6018 14.6626 80.9705 13.7424 81.1846 12.677C81.5889 11.8173 81.6841 10.6429 82.1717 9.86795H83.3967C83.8368 10.7155 84.0033 11.8415 84.3839 12.7496C84.6337 13.7667 84.9786 14.6868 85.2402 15.6918C85.8468 17.6411 86.4771 19.5663 87.0242 21.5762C87.274 21.2008 87.274 20.5712 87.4524 20.1353C87.5594 19.6389 87.6546 19.1304 87.8211 18.6945C88.2968 16.7088 88.7488 14.7111 89.2959 12.8101C89.4981 11.8173 89.7003 10.8003 90.0333 9.92849C90.7469 9.81952 91.8411 9.81952 92.5547 9.92849C92.6142 10.6671 92.2811 11.4662 92.067 12.12C91.9481 12.9191 91.6627 13.5366 91.5081 14.3115C91.068 15.7281 90.735 17.2295 90.283 18.634C89.9381 20.1353 89.4743 21.5156 89.1175 23.017C88.8796 23.7071 88.7131 24.4699 88.499 25.2085C88.2612 25.8865 88.1779 26.722 87.8211 27.2789H86.0965C85.6565 26.4919 85.5019 25.4264 85.1094 24.591C84.2531 21.8304 83.3016 19.1788 82.4691 16.394C82.1836 16.6967 82.1836 17.3142 81.9814 17.7017C81.8506 18.1739 81.7198 18.6461 81.5533 19.082C81.3154 20.0385 80.9586 20.8497 80.7564 21.8304C80.4115 22.6901 80.1617 23.6466 79.9001 24.591C79.5433 25.4143 79.4124 26.4677 78.9724 27.2184C78.5204 27.3637 77.8068 27.2426 77.2478 27.2789C76.8197 26.7825 76.7721 25.8865 76.5104 25.2085C76.3082 24.5062 76.1655 23.7313 75.9039 23.0775C75.5709 21.5519 75.0713 20.208 74.7383 18.6945C74.2983 17.29 73.9177 15.825 73.5133 14.372C73.2873 13.6819 73.1208 12.9433 72.8948 12.2411C72.7878 11.4904 72.2883 10.8124 72.4667 9.98903C72.4905 9.92849 72.5618 9.89217 72.6332 9.86795ZM96.9077 9.86795C97.871 9.90428 98.989 9.7832 99.8573 9.92849C100.071 10.5823 99.9762 11.2846 99.9762 11.9868V25.1237C99.9762 25.8381 100.059 26.5282 99.8573 27.1942C99.1912 27.2668 98.216 27.3031 97.3953 27.2547C97.1574 27.2426 96.872 27.3152 96.7174 27.1336C96.5033 26.4798 96.5985 25.7897 96.5985 25.0632V12.0595C96.5985 11.2725 96.5271 10.5097 96.7174 9.98903C96.765 9.92849 96.8363 9.89217 96.9077 9.86795Z" fill="#0269B3"/>
</g>
<defs>
<clipPath id="clip0_1230_48">
<rect width="100" height="43.6364" fill="white" transform="translate(0 0.181885)"/>
</clipPath>
</defs>
</svg>
