<svg width="46" height="46" viewBox="0 0 46 46" fill="none" xmlns="http://www.w3.org/2000/svg">
<g clip-path="url(#clip0_1230_92)">
<path d="M23.0667 0.27002C10.6417 0.27002 0.56665 10.345 0.56665 22.77C0.56665 35.195 10.6417 45.27 23.0667 45.27C35.4917 45.27 45.5667 35.2013 45.5667 22.77C45.5667 10.3388 35.4917 0.27002 23.0667 0.27002Z" fill="#26A17B"/>
<path d="M19.8985 20.2613V16.9113H12.2422V11.8113H33.086V16.9113H25.4297V20.2613C31.6485 20.5488 36.3297 21.78 36.3297 23.255C36.3297 24.73 31.6485 25.9613 25.4297 26.2488V36.9675H19.8922V26.2488C13.6797 25.9613 9.01098 24.73 9.01098 23.255C9.01723 21.78 13.686 20.5488 19.8985 20.2613ZM19.8922 25.3425C20.0485 25.3488 20.8485 25.3988 22.636 25.3988C24.0672 25.3988 25.0672 25.3613 25.4235 25.3425V25.3488C30.9172 25.105 35.0235 24.1488 35.0235 23.005C35.0235 21.8613 30.9235 20.905 25.4235 20.6613V24.3863C25.061 24.4113 24.036 24.4738 22.611 24.4738C20.9047 24.4738 20.0485 24.405 19.886 24.3863V20.6488C14.3985 20.8925 10.3047 21.8488 10.3047 22.9925C10.3172 24.1363 14.411 25.0925 19.8922 25.3425Z" fill="white"/>
</g>
<defs>
<clipPath id="clip0_1230_92">
<rect width="45" height="45" fill="white" transform="matrix(-1 0 0 1 45.5667 0.27002)"/>
</clipPath>
</defs>
</svg>
