<svg width="208" height="208" viewBox="0 0 208 208" fill="none" xmlns="http://www.w3.org/2000/svg">
<g filter="url(#filter0_d_18_88527)">
<rect x="40" y="20" width="128" height="128" rx="64" fill="url(#paint0_linear_18_88527)"/>
<rect x="40" y="20" width="128" height="128" rx="64" fill="url(#paint1_linear_18_88527)"/>
<path d="M125.333 108H82.6667C79.72 108 77.3333 105.613 77.3333 102.667V65.3333C77.3333 62.3867 79.72 60 82.6667 60H125.333C128.28 60 130.667 62.3867 130.667 65.3333V102.667C130.667 105.613 128.28 108 125.333 108Z" stroke="white" stroke-width="3" stroke-linecap="round" stroke-linejoin="round"/>
<path d="M77.3333 73.3335H130.667" stroke="white" stroke-width="3" stroke-linecap="round" stroke-linejoin="round"/>
<path d="M108.078 84.6639C110.861 87.4476 110.861 91.9608 108.078 94.7444C105.294 97.5281 100.781 97.5281 97.9971 94.7444C95.2134 91.9608 95.2134 87.4476 97.9971 84.6639C100.781 81.8803 105.294 81.8803 108.078 84.6639" stroke="white" stroke-width="3" stroke-linecap="round" stroke-linejoin="round"/>
<path d="M112.08 98.7466L108.08 94.7466" stroke="white" stroke-width="3" stroke-linecap="round" stroke-linejoin="round"/>
<path d="M84.744 66.6401C84.736 66.6401 84.7307 66.6455 84.7307 66.6535C84.7307 66.6615 84.736 66.6668 84.744 66.6668C84.752 66.6668 84.7573 66.6615 84.7573 66.6535C84.7573 66.6455 84.752 66.6401 84.744 66.6401Z" stroke="white" stroke-width="3" stroke-linecap="round" stroke-linejoin="round"/>
<path d="M91.5254 66.6401C91.5174 66.6401 91.512 66.6455 91.512 66.6535C91.512 66.6615 91.52 66.6668 91.5254 66.6668C91.5334 66.6668 91.5387 66.6615 91.5387 66.6535C91.5387 66.6455 91.5334 66.6401 91.5254 66.6401Z" stroke="white" stroke-width="3" stroke-linecap="round" stroke-linejoin="round"/>
<path d="M98.296 66.6401C98.288 66.6401 98.2827 66.6455 98.2827 66.6535C98.2827 66.6615 98.288 66.6668 98.296 66.6668C98.304 66.6668 98.3094 66.6615 98.3094 66.6535C98.3094 66.6455 98.304 66.6401 98.296 66.6401Z" stroke="white" stroke-width="3" stroke-linecap="round" stroke-linejoin="round"/>
</g>
<defs>
<filter id="filter0_d_18_88527" x="0" y="0" width="208" height="208" filterUnits="userSpaceOnUse" color-interpolation-filters="sRGB">
<feFlood flood-opacity="0" result="BackgroundImageFix"/>
<feColorMatrix in="SourceAlpha" type="matrix" values="0 0 0 0 0 0 0 0 0 0 0 0 0 0 0 0 0 0 127 0" result="hardAlpha"/>
<feOffset dy="20"/>
<feGaussianBlur stdDeviation="20"/>
<feComposite in2="hardAlpha" operator="out"/>
<feColorMatrix type="matrix" values="0 0 0 0 0.0495139 0 0 0 0 0.152288 0 0 0 0 0.516667 0 0 0 0.3 0"/>
<feBlend mode="normal" in2="BackgroundImageFix" result="effect1_dropShadow_18_88527"/>
<feBlend mode="normal" in="SourceGraphic" in2="effect1_dropShadow_18_88527" result="shape"/>
</filter>
<linearGradient id="paint0_linear_18_88527" x1="40" y1="20" x2="168" y2="148" gradientUnits="userSpaceOnUse">
<stop stop-color="#F39121"/>
<stop offset="1" stop-color="#F3C521"/>
</linearGradient>
<linearGradient id="paint1_linear_18_88527" x1="104" y1="20" x2="104" y2="151.879" gradientUnits="userSpaceOnUse">
<stop stop-color="#05119A"/>
<stop offset="1" stop-color="#213896"/>
</linearGradient>
</defs>
</svg>
