<svg width="208" height="208" viewBox="0 0 208 208" fill="none" xmlns="http://www.w3.org/2000/svg">
<g filter="url(#filter0_d_18_88634)">
<rect x="40" y="20" width="128" height="128" rx="64" fill="url(#paint0_linear_18_88634)"/>
<rect x="40" y="20" width="128" height="128" rx="64" fill="url(#paint1_linear_18_88634)"/>
<path d="M122.667 92H125.333C126.748 92 128.104 91.4381 129.105 90.4379C130.105 89.4377 130.667 88.0812 130.667 86.6667V65.3333C130.667 63.9188 130.105 62.5623 129.105 61.5621C128.104 60.5619 126.748 60 125.333 60H82.6667C81.2522 60 79.8956 60.5619 78.8954 61.5621C77.8952 62.5623 77.3333 63.9188 77.3333 65.3333V86.6667C77.3333 88.0812 77.8952 89.4377 78.8954 90.4379C79.8956 91.4381 81.2522 92 82.6667 92H85.3333" stroke="white" stroke-width="3" stroke-linecap="round" stroke-linejoin="round"/>
<path d="M108.963 105.334L112.53 109.261C112.932 109.704 113.422 110.057 113.969 110.3C114.516 110.542 115.108 110.667 115.706 110.667V110.667C116.386 110.667 117.056 110.505 117.661 110.196C118.266 109.886 118.789 109.437 119.187 108.885C119.584 108.334 119.845 107.696 119.948 107.024C120.05 106.352 119.992 105.665 119.777 105.02L117.116 97.0334C116.582 95.3995 115.659 93.92 114.426 92.7229C113.193 91.5257 111.687 90.6468 110.038 90.1622C106.088 89.0573 101.911 89.0573 97.9619 90.1622C96.3129 90.6468 94.8067 91.5257 93.5735 92.723C92.3403 93.9202 91.4172 95.3998 90.8839 97.0337L88.2233 105.02C88.0085 105.665 87.9499 106.352 88.0526 107.024C88.1552 107.696 88.416 108.334 88.8136 108.885C89.2111 109.437 89.734 109.886 90.3391 110.196C90.9442 110.505 91.6143 110.667 92.2941 110.667V110.667C92.8923 110.667 93.4838 110.542 94.0308 110.3C94.5778 110.057 95.0681 109.704 95.4703 109.261L99.0365 105.334H108.963Z" stroke="white" stroke-width="3" stroke-linecap="round" stroke-linejoin="round"/>
<path d="M106.667 97.3335H101.333" stroke="white" stroke-width="3" stroke-linecap="round" stroke-linejoin="round"/>
</g>
<defs>
<filter id="filter0_d_18_88634" x="0" y="0" width="208" height="208" filterUnits="userSpaceOnUse" color-interpolation-filters="sRGB">
<feFlood flood-opacity="0" result="BackgroundImageFix"/>
<feColorMatrix in="SourceAlpha" type="matrix" values="0 0 0 0 0 0 0 0 0 0 0 0 0 0 0 0 0 0 127 0" result="hardAlpha"/>
<feOffset dy="20"/>
<feGaussianBlur stdDeviation="20"/>
<feComposite in2="hardAlpha" operator="out"/>
<feColorMatrix type="matrix" values="0 0 0 0 0.0495139 0 0 0 0 0.152288 0 0 0 0 0.516667 0 0 0 0.3 0"/>
<feBlend mode="normal" in2="BackgroundImageFix" result="effect1_dropShadow_18_88634"/>
<feBlend mode="normal" in="SourceGraphic" in2="effect1_dropShadow_18_88634" result="shape"/>
</filter>
<linearGradient id="paint0_linear_18_88634" x1="40" y1="20" x2="168" y2="148" gradientUnits="userSpaceOnUse">
<stop stop-color="#F39121"/>
<stop offset="1" stop-color="#F3C521"/>
</linearGradient>
<linearGradient id="paint1_linear_18_88634" x1="104" y1="20" x2="104" y2="151.879" gradientUnits="userSpaceOnUse">
<stop stop-color="#05119A"/>
<stop offset="1" stop-color="#213896"/>
</linearGradient>
</defs>
</svg>
