<svg width="208" height="208" viewBox="0 0 208 208" fill="none" xmlns="http://www.w3.org/2000/svg">
<g filter="url(#filter0_d_18_88620)">
<rect x="40" y="20" width="128" height="128" rx="64" fill="url(#paint0_linear_18_88620)"/>
<rect x="40" y="20" width="128" height="128" rx="64" fill="url(#paint1_linear_18_88620)"/>
<path d="M102.579 102.491C91.584 102.491 82.6667 93.5732 82.6667 82.5785C82.6667 71.5838 91.584 62.6665 102.579 62.6665C113.579 62.6665 122.491 71.5838 122.491 82.5785C122.491 93.5732 113.579 102.491 102.579 102.491" stroke="white" stroke-width="3" stroke-linecap="round" stroke-linejoin="round"/>
<path d="M125.333 105.333L116.667 96.6665" stroke="white" stroke-width="3" stroke-linecap="round" stroke-linejoin="round"/>
<path d="M99.2613 79.2614L102.579 75.9414V89.2187" stroke="white" stroke-width="3" stroke-linecap="round" stroke-linejoin="round"/>
<path d="M99.272 89.2295H105.883" stroke="white" stroke-width="3" stroke-linecap="round" stroke-linejoin="round"/>
</g>
<defs>
<filter id="filter0_d_18_88620" x="0" y="0" width="208" height="208" filterUnits="userSpaceOnUse" color-interpolation-filters="sRGB">
<feFlood flood-opacity="0" result="BackgroundImageFix"/>
<feColorMatrix in="SourceAlpha" type="matrix" values="0 0 0 0 0 0 0 0 0 0 0 0 0 0 0 0 0 0 127 0" result="hardAlpha"/>
<feOffset dy="20"/>
<feGaussianBlur stdDeviation="20"/>
<feComposite in2="hardAlpha" operator="out"/>
<feColorMatrix type="matrix" values="0 0 0 0 0.0495139 0 0 0 0 0.152288 0 0 0 0 0.516667 0 0 0 0.3 0"/>
<feBlend mode="normal" in2="BackgroundImageFix" result="effect1_dropShadow_18_88620"/>
<feBlend mode="normal" in="SourceGraphic" in2="effect1_dropShadow_18_88620" result="shape"/>
</filter>
<linearGradient id="paint0_linear_18_88620" x1="40" y1="20" x2="168" y2="148" gradientUnits="userSpaceOnUse">
<stop stop-color="#F39121"/>
<stop offset="1" stop-color="#F3C521"/>
</linearGradient>
<linearGradient id="paint1_linear_18_88620" x1="104" y1="20" x2="104" y2="151.879" gradientUnits="userSpaceOnUse">
<stop stop-color="#05119A"/>
<stop offset="1" stop-color="#213896"/>
</linearGradient>
</defs>
</svg>
